<?xml version="1.0" encoding="UTF-8" standalone="no"?>
<!DOCTYPE svg PUBLIC "-//W3C//DTD SVG 1.1//EN"
 "http://www.w3.org/Graphics/SVG/1.1/DTD/svg11.dtd">
<!-- Generated by graphviz version 2.26.3 (20100126.1600)
 -->
<!-- Title: G Pages: 1 -->
<svg width="1442pt" height="524pt"
 viewBox="0.00 0.00 1442.00 524.00" xmlns="http://www.w3.org/2000/svg" xmlns:xlink="http://www.w3.org/1999/xlink">
<g id="graph1" class="graph" transform="scale(1 1) rotate(0) translate(4 520)">
<title>G</title>
<polygon fill="white" stroke="white" points="-4,5 -4,-520 1439,-520 1439,5 -4,5"/>
<!-- SparkDC++\nNon&#45;GPL&#45;compliant -->
<g id="node1" class="node"><title>SparkDC++\nNon&#45;GPL&#45;compliant</title>
<ellipse fill="none" stroke="grey" cx="1095" cy="-30" rx="106.773" ry="29.6985"/>
<text text-anchor="middle" x="1095" y="-34.4" font-family="Times Roman,serif" font-size="14.00">SparkDC++</text>
<text text-anchor="middle" x="1095" y="-17.4" font-family="Times Roman,serif" font-size="14.00">Non&#45;GPL&#45;compliant</text>
</g>
<!-- GreylinkDC++\nNon&#45;GPL&#45;compliant -->
<g id="node2" class="node"><title>GreylinkDC++\nNon&#45;GPL&#45;compliant</title>
<ellipse fill="none" stroke="grey" cx="863" cy="-126" rx="106.773" ry="29.6985"/>
<text text-anchor="middle" x="863" y="-130.4" font-family="Times Roman,serif" font-size="14.00">GreylinkDC++</text>
<text text-anchor="middle" x="863" y="-113.4" font-family="Times Roman,serif" font-size="14.00">Non&#45;GPL&#45;compliant</text>
</g>
<!-- GreylinkDC++\nNon&#45;GPL&#45;compliant&#45;&gt;SparkDC++\nNon&#45;GPL&#45;compliant -->
<g id="edge46" class="edge"><title>GreylinkDC++\nNon&#45;GPL&#45;compliant&#45;&gt;SparkDC++\nNon&#45;GPL&#45;compliant</title>
<path fill="none" stroke="black" d="M922.444,-101.402C953.97,-88.3572 992.875,-72.2588 1025.76,-58.6518"/>
<polygon fill="black" stroke="black" points="1027.41,-61.7581 1035.31,-54.7005 1024.73,-55.29 1027.41,-61.7581"/>
</g>
<!-- PeLink\nNon&#45;GPL&#45;compliant -->
<g id="node3" class="node"><title>PeLink\nNon&#45;GPL&#45;compliant</title>
<ellipse fill="none" stroke="grey" cx="1327" cy="-30" rx="106.773" ry="29.6985"/>
<text text-anchor="middle" x="1327" y="-34.4" font-family="Times Roman,serif" font-size="14.00">PeLink</text>
<text text-anchor="middle" x="1327" y="-17.4" font-family="Times Roman,serif" font-size="14.00">Non&#45;GPL&#45;compliant</text>
</g>
<!-- GreylinkDC++\nNon&#45;GPL&#45;compliant&#45;&gt;PeLink\nNon&#45;GPL&#45;compliant -->
<g id="edge44" class="edge"><title>GreylinkDC++\nNon&#45;GPL&#45;compliant&#45;&gt;PeLink\nNon&#45;GPL&#45;compliant</title>
<path fill="none" stroke="black" d="M954.194,-110.394C1024.59,-97.939 1124.29,-79.4134 1211,-60 1220.52,-57.8697 1230.43,-55.5137 1240.29,-53.0861"/>
<polygon fill="black" stroke="black" points="1241.25,-56.4536 1250.11,-50.6404 1239.56,-49.6612 1241.25,-56.4536"/>
</g>
<!-- RayLinkDC++\nNon&#45;GPL&#45;compliant -->
<g id="node4" class="node"><title>RayLinkDC++\nNon&#45;GPL&#45;compliant</title>
<ellipse fill="none" stroke="grey" cx="863" cy="-30" rx="106.773" ry="29.6985"/>
<text text-anchor="middle" x="863" y="-34.4" font-family="Times Roman,serif" font-size="14.00">RayLinkDC++</text>
<text text-anchor="middle" x="863" y="-17.4" font-family="Times Roman,serif" font-size="14.00">Non&#45;GPL&#45;compliant</text>
</g>
<!-- GreylinkDC++\nNon&#45;GPL&#45;compliant&#45;&gt;RayLinkDC++\nNon&#45;GPL&#45;compliant -->
<g id="edge48" class="edge"><title>GreylinkDC++\nNon&#45;GPL&#45;compliant&#45;&gt;RayLinkDC++\nNon&#45;GPL&#45;compliant</title>
<path fill="none" stroke="black" d="M863,-96.4135C863,-88.0189 863,-78.7386 863,-69.8433"/>
<polygon fill="black" stroke="black" points="866.5,-69.654 863,-59.6541 859.5,-69.6541 866.5,-69.654"/>
</g>
<!-- AvaLink\nNon&#45;GPL&#45;compliant -->
<g id="node5" class="node"><title>AvaLink\nNon&#45;GPL&#45;compliant</title>
<ellipse fill="none" stroke="grey" cx="631" cy="-30" rx="106.773" ry="29.6985"/>
<text text-anchor="middle" x="631" y="-34.4" font-family="Times Roman,serif" font-size="14.00">AvaLink</text>
<text text-anchor="middle" x="631" y="-17.4" font-family="Times Roman,serif" font-size="14.00">Non&#45;GPL&#45;compliant</text>
</g>
<!-- GreylinkDC++\nNon&#45;GPL&#45;compliant&#45;&gt;AvaLink\nNon&#45;GPL&#45;compliant -->
<g id="edge50" class="edge"><title>GreylinkDC++\nNon&#45;GPL&#45;compliant&#45;&gt;AvaLink\nNon&#45;GPL&#45;compliant</title>
<path fill="none" stroke="black" stroke-dasharray="5,2" d="M803.556,-101.402C772.03,-88.3572 733.125,-72.2588 700.242,-58.6518"/>
<polygon fill="black" stroke="black" points="701.271,-55.29 690.693,-54.7005 698.595,-61.7581 701.271,-55.29"/>
</g>
<!-- DC++ -->
<g id="node6" class="node"><title>DC++</title>
<ellipse fill="none" stroke="black" cx="422" cy="-498" rx="43.0827" ry="18"/>
<text text-anchor="middle" x="422" y="-493.9" font-family="Times Roman,serif" font-size="14.00">DC++</text>
</g>
<!-- LinuxDC++ -->
<g id="node8" class="node"><title>LinuxDC++</title>
<ellipse fill="none" stroke="black" cx="227" cy="-426" rx="68.9883" ry="18"/>
<text text-anchor="middle" x="227" y="-421.9" font-family="Times Roman,serif" font-size="14.00">LinuxDC++</text>
</g>
<!-- DC++&#45;&gt;LinuxDC++ -->
<g id="edge2" class="edge"><title>DC++&#45;&gt;LinuxDC++</title>
<path fill="none" stroke="black" d="M389.361,-485.949C358.54,-474.569 311.893,-457.345 276.495,-444.275"/>
<polygon fill="black" stroke="black" points="277.425,-440.887 266.831,-440.707 275,-447.454 277.425,-440.887"/>
</g>
<!-- EiskaltDC++ -->
<g id="node10" class="node"><title>EiskaltDC++</title>
<ellipse fill="none" stroke="black" cx="206" cy="-282" rx="73.8534" ry="18"/>
<text text-anchor="middle" x="206" y="-277.9" font-family="Times Roman,serif" font-size="14.00">EiskaltDC++</text>
</g>
<!-- DC++&#45;&gt;EiskaltDC++ -->
<g id="edge4" class="edge"><title>DC++&#45;&gt;EiskaltDC++</title>
<path fill="none" stroke="black" d="M408.861,-480.856C384.855,-450.08 331.528,-384.181 279,-336 267.012,-325.005 252.828,-314.1 240.166,-304.999"/>
<polygon fill="black" stroke="black" points="241.875,-301.921 231.689,-299.008 237.835,-307.637 241.875,-301.921"/>
</g>
<!-- StrongDC++ -->
<g id="node12" class="node"><title>StrongDC++</title>
<ellipse fill="none" stroke="black" cx="506" cy="-354" rx="75.0473" ry="18"/>
<text text-anchor="middle" x="506" y="-349.9" font-family="Times Roman,serif" font-size="14.00">StrongDC++</text>
</g>
<!-- DC++&#45;&gt;StrongDC++ -->
<g id="edge6" class="edge"><title>DC++&#45;&gt;StrongDC++</title>
<path fill="none" stroke="black" d="M422.377,-479.821C423.528,-460.681 427.554,-430.288 441,-408 448.247,-395.988 459.149,-385.415 469.965,-376.882"/>
<polygon fill="black" stroke="black" points="472.238,-379.552 478.157,-370.765 468.05,-373.944 472.238,-379.552"/>
</g>
<!-- DiCe!++ -->
<g id="node14" class="node"><title>DiCe!++</title>
<ellipse fill="none" stroke="black" cx="966" cy="-210" rx="55.0898" ry="18"/>
<text text-anchor="middle" x="966" y="-205.9" font-family="Times Roman,serif" font-size="14.00">DiCe!++</text>
</g>
<!-- DC++&#45;&gt;DiCe!++ -->
<g id="edge8" class="edge"><title>DC++&#45;&gt;DiCe!++</title>
<path fill="none" stroke="black" d="M464.797,-495.298C565.604,-486.51 819.094,-449.852 947,-300 961.521,-282.987 965.84,-257.65 966.774,-238.19"/>
<polygon fill="black" stroke="black" points="970.275,-238.145 966.988,-228.073 963.277,-237.997 970.275,-238.145"/>
</g>
<!-- BCDC++ -->
<g id="node16" class="node"><title>BCDC++</title>
<ellipse fill="none" stroke="black" cx="506" cy="-426" rx="55.7874" ry="18"/>
<text text-anchor="middle" x="506" y="-421.9" font-family="Times Roman,serif" font-size="14.00">BCDC++</text>
</g>
<!-- DC++&#45;&gt;BCDC++ -->
<g id="edge10" class="edge"><title>DC++&#45;&gt;BCDC++</title>
<path fill="none" stroke="black" d="M441.061,-481.662C452.1,-472.2 466.188,-460.125 478.419,-449.641"/>
<polygon fill="black" stroke="black" points="480.823,-452.19 486.138,-443.025 476.268,-446.875 480.823,-452.19"/>
</g>
<!-- FreeDC++ -->
<g id="node19" class="node"><title>FreeDC++</title>
<ellipse fill="none" stroke="black" cx="206" cy="-354" rx="63.9292" ry="18"/>
<text text-anchor="middle" x="206" y="-349.9" font-family="Times Roman,serif" font-size="14.00">FreeDC++</text>
</g>
<!-- LinuxDC++&#45;&gt;FreeDC++ -->
<g id="edge14" class="edge"><title>LinuxDC++&#45;&gt;FreeDC++</title>
<path fill="none" stroke="black" d="M221.701,-407.831C219.43,-400.046 216.725,-390.773 214.206,-382.135"/>
<polygon fill="black" stroke="black" points="217.531,-381.033 211.371,-372.413 210.811,-382.993 217.531,-381.033"/>
</g>
<!-- zK++ -->
<g id="node24" class="node"><title>zK++</title>
<ellipse fill="none" stroke="black" cx="506" cy="-282" rx="39.8056" ry="18"/>
<text text-anchor="middle" x="506" y="-277.9" font-family="Times Roman,serif" font-size="14.00">zK++</text>
</g>
<!-- StrongDC++&#45;&gt;zK++ -->
<g id="edge20" class="edge"><title>StrongDC++&#45;&gt;zK++</title>
<path fill="none" stroke="black" d="M506,-335.831C506,-328.131 506,-318.974 506,-310.417"/>
<polygon fill="black" stroke="black" points="509.5,-310.413 506,-300.413 502.5,-310.413 509.5,-310.413"/>
</g>
<!-- TkDC++ -->
<g id="node26" class="node"><title>TkDC++</title>
<ellipse fill="none" stroke="black" cx="769" cy="-282" rx="54.8957" ry="18"/>
<text text-anchor="middle" x="769" y="-277.9" font-family="Times Roman,serif" font-size="14.00">TkDC++</text>
</g>
<!-- StrongDC++&#45;&gt;TkDC++ -->
<g id="edge22" class="edge"><title>StrongDC++&#45;&gt;TkDC++</title>
<path fill="none" stroke="black" d="M556.333,-340.479C596.586,-329.633 654.45,-313.967 705,-300 709.068,-298.876 713.279,-297.706 717.51,-296.526"/>
<polygon fill="black" stroke="black" points="718.671,-299.836 727.359,-293.771 716.786,-293.094 718.671,-299.836"/>
</g>
<!-- RSX++ -->
<g id="node28" class="node"><title>RSX++</title>
<ellipse fill="none" stroke="black" cx="890" cy="-282" rx="48.1403" ry="18"/>
<text text-anchor="middle" x="890" y="-277.9" font-family="Times Roman,serif" font-size="14.00">RSX++</text>
</g>
<!-- StrongDC++&#45;&gt;RSX++ -->
<g id="edge24" class="edge"><title>StrongDC++&#45;&gt;RSX++</title>
<path fill="none" stroke="black" d="M572.941,-345.783C639.428,-336.959 744.022,-321.282 833,-300 836.808,-299.089 840.733,-298.056 844.656,-296.956"/>
<polygon fill="black" stroke="black" points="845.728,-300.289 854.338,-294.116 843.757,-293.572 845.728,-300.289"/>
</g>
<!-- AirDC++ -->
<g id="node30" class="node"><title>AirDC++</title>
<ellipse fill="none" stroke="black" cx="354" cy="-282" rx="55.7874" ry="18"/>
<text text-anchor="middle" x="354" y="-277.9" font-family="Times Roman,serif" font-size="14.00">AirDC++</text>
</g>
<!-- StrongDC++&#45;&gt;AirDC++ -->
<g id="edge26" class="edge"><title>StrongDC++&#45;&gt;AirDC++</title>
<path fill="none" stroke="black" d="M471.888,-337.842C449.093,-327.044 418.987,-312.783 394.905,-301.376"/>
<polygon fill="black" stroke="black" points="396.2,-298.117 385.664,-296.999 393.203,-304.443 396.2,-298.117"/>
</g>
<!-- StrongDC++ SQLite -->
<g id="node32" class="node"><title>StrongDC++ SQLite</title>
<ellipse fill="none" stroke="black" cx="437" cy="-210" rx="109.986" ry="18"/>
<text text-anchor="middle" x="437" y="-205.9" font-family="Times Roman,serif" font-size="14.00">StrongDC++ SQLite</text>
</g>
<!-- StrongDC++&#45;&gt;StrongDC++ SQLite -->
<g id="edge28" class="edge"><title>StrongDC++&#45;&gt;StrongDC++ SQLite</title>
<path fill="none" stroke="black" d="M485.616,-336.376C475.563,-326.622 464.101,-313.715 457,-300 447.033,-280.751 442.015,-256.683 439.498,-238.28"/>
<polygon fill="black" stroke="black" points="442.952,-237.691 438.287,-228.178 436.002,-238.524 442.952,-237.691"/>
</g>
<!-- ApexDC++ -->
<g id="node34" class="node"><title>ApexDC++</title>
<ellipse fill="none" stroke="black" cx="630" cy="-282" rx="66.2071" ry="18"/>
<text text-anchor="middle" x="630" y="-277.9" font-family="Times Roman,serif" font-size="14.00">ApexDC++</text>
</g>
<!-- StrongDC++&#45;&gt;ApexDC++ -->
<g id="edge30" class="edge"><title>StrongDC++&#45;&gt;ApexDC++</title>
<path fill="none" stroke="black" d="M534.76,-337.301C552.098,-327.233 574.361,-314.307 593.001,-303.483"/>
<polygon fill="black" stroke="black" points="594.933,-306.409 601.824,-298.36 591.418,-300.355 594.933,-306.409"/>
</g>
<!-- BCDC++&#45;&gt;StrongDC++ -->
<g id="edge12" class="edge"><title>BCDC++&#45;&gt;StrongDC++</title>
<path fill="none" stroke="black" stroke-dasharray="5,2" d="M506,-407.831C506,-400.131 506,-390.974 506,-382.417"/>
<polygon fill="black" stroke="black" points="509.5,-382.413 506,-372.413 502.5,-382.413 509.5,-382.413"/>
</g>
<!-- FreeDC++&#45;&gt;EiskaltDC++ -->
<g id="edge18" class="edge"><title>FreeDC++&#45;&gt;EiskaltDC++</title>
<path fill="none" stroke="black" stroke-dasharray="5,2" d="M206,-335.831C206,-328.131 206,-318.974 206,-310.417"/>
<polygon fill="black" stroke="black" points="209.5,-310.413 206,-300.413 202.5,-310.413 209.5,-310.413"/>
</g>
<!-- BMDC++ -->
<g id="node21" class="node"><title>BMDC++</title>
<ellipse fill="none" stroke="black" cx="57" cy="-282" rx="57.1737" ry="18"/>
<text text-anchor="middle" x="57" y="-277.9" font-family="Times Roman,serif" font-size="14.00">BMDC++</text>
</g>
<!-- FreeDC++&#45;&gt;BMDC++ -->
<g id="edge16" class="edge"><title>FreeDC++&#45;&gt;BMDC++</title>
<path fill="none" stroke="black" d="M173.669,-338.377C151.303,-327.569 121.377,-313.108 97.4337,-301.538"/>
<polygon fill="black" stroke="black" points="98.7733,-298.299 88.2466,-297.099 95.7277,-304.601 98.7733,-298.299"/>
</g>
<!-- FlylinkDC++\nver &gt;= 5xx -->
<g id="node36" class="node"><title>FlylinkDC++\nver &gt;= 5xx</title>
<ellipse fill="none" stroke="black" cx="431" cy="-30" rx="75.1594" ry="29.6985"/>
<text text-anchor="middle" x="431" y="-34.4" font-family="Times Roman,serif" font-size="14.00">FlylinkDC++</text>
<text text-anchor="middle" x="431" y="-17.4" font-family="Times Roman,serif" font-size="14.00">ver &gt;= 5xx</text>
</g>
<!-- StrongDC++ SQLite&#45;&gt;FlylinkDC++\nver &gt;= 5xx -->
<g id="edge32" class="edge"><title>StrongDC++ SQLite&#45;&gt;FlylinkDC++\nver &gt;= 5xx</title>
<path fill="none" stroke="black" stroke-dasharray="5,2" d="M436.392,-191.75C435.444,-163.32 433.593,-107.782 432.326,-69.7939"/>
<polygon fill="black" stroke="black" points="435.817,-69.4594 431.986,-59.5816 428.821,-69.6926 435.817,-69.4594"/>
</g>
<!-- ApexDC++&#45;&gt;DiCe!++ -->
<g id="edge38" class="edge"><title>ApexDC++&#45;&gt;DiCe!++</title>
<path fill="none" stroke="black" stroke-dasharray="5,2" d="M679.132,-269.801C687.735,-267.781 696.615,-265.771 705,-264 792.084,-245.607 815.287,-248.071 902,-228 906.356,-226.992 910.858,-225.877 915.364,-224.71"/>
<polygon fill="black" stroke="black" points="916.415,-228.052 925.176,-222.095 914.612,-221.288 916.415,-228.052"/>
</g>
<!-- ApexDC++ Speed&#45;Mod -->
<g id="node38" class="node"><title>ApexDC++ Speed&#45;Mod</title>
<ellipse fill="none" stroke="black" cx="771" cy="-210" rx="121.8" ry="18"/>
<text text-anchor="middle" x="771" y="-205.9" font-family="Times Roman,serif" font-size="14.00">ApexDC++ Speed&#45;Mod</text>
</g>
<!-- ApexDC++&#45;&gt;ApexDC++ Speed&#45;Mod -->
<g id="edge34" class="edge"><title>ApexDC++&#45;&gt;ApexDC++ Speed&#45;Mod</title>
<path fill="none" stroke="black" d="M661.292,-266.021C680.886,-256.016 706.404,-242.985 727.898,-232.01"/>
<polygon fill="black" stroke="black" points="729.52,-235.111 736.834,-227.446 726.336,-228.877 729.52,-235.111"/>
</g>
<!-- FlylinkDC++\nver &lt;= 4xx -->
<g id="node40" class="node"><title>FlylinkDC++\nver &lt;= 4xx</title>
<ellipse fill="none" stroke="black" cx="623" cy="-126" rx="75.1594" ry="29.6985"/>
<text text-anchor="middle" x="623" y="-130.4" font-family="Times Roman,serif" font-size="14.00">FlylinkDC++</text>
<text text-anchor="middle" x="623" y="-113.4" font-family="Times Roman,serif" font-size="14.00">ver &lt;= 4xx</text>
</g>
<!-- ApexDC++&#45;&gt;FlylinkDC++\nver &lt;= 4xx -->
<g id="edge36" class="edge"><title>ApexDC++&#45;&gt;FlylinkDC++\nver &lt;= 4xx</title>
<path fill="none" stroke="black" stroke-dasharray="5,2" d="M629.183,-263.8C628.111,-239.898 626.198,-197.274 624.783,-165.74"/>
<polygon fill="black" stroke="black" points="628.269,-165.347 624.324,-155.514 621.276,-165.66 628.269,-165.347"/>
</g>
<!-- ApexDC++ Speed&#45;Mod&#45;&gt;GreylinkDC++\nNon&#45;GPL&#45;compliant -->
<g id="edge40" class="edge"><title>ApexDC++ Speed&#45;Mod&#45;&gt;GreylinkDC++\nNon&#45;GPL&#45;compliant</title>
<path fill="none" stroke="black" d="M790.511,-192.186C800.376,-183.179 812.707,-171.92 824.385,-161.257"/>
<polygon fill="black" stroke="black" points="826.908,-163.693 831.933,-154.365 822.188,-158.523 826.908,-163.693"/>
</g>
<!-- ApexDC++ Speed&#45;Mod&#45;&gt;FlylinkDC++\nver &lt;= 4xx -->
<g id="edge42" class="edge"><title>ApexDC++ Speed&#45;Mod&#45;&gt;FlylinkDC++\nver &lt;= 4xx</title>
<path fill="none" stroke="black" d="M739.974,-192.391C721.052,-181.651 696.392,-167.655 674.596,-155.284"/>
<polygon fill="black" stroke="black" points="676.197,-152.168 665.772,-150.276 672.741,-158.256 676.197,-152.168"/>
</g>
<!-- FlylinkDC++\nver &lt;= 4xx&#45;&gt;AvaLink\nNon&#45;GPL&#45;compliant -->
<g id="edge54" class="edge"><title>FlylinkDC++\nver &lt;= 4xx&#45;&gt;AvaLink\nNon&#45;GPL&#45;compliant</title>
<path fill="none" stroke="black" d="M625.466,-96.4135C626.165,-88.0189 626.938,-78.7386 627.68,-69.8433"/>
<polygon fill="black" stroke="black" points="631.186,-69.9102 628.529,-59.6541 624.21,-69.3288 631.186,-69.9102"/>
</g>
<!-- FlylinkDC++\nver &lt;= 4xx&#45;&gt;FlylinkDC++\nver &gt;= 5xx -->
<g id="edge52" class="edge"><title>FlylinkDC++\nver &lt;= 4xx&#45;&gt;FlylinkDC++\nver &gt;= 5xx</title>
<path fill="none" stroke="black" d="M576.522,-102.761C549.383,-89.1915 514.973,-71.9864 486.427,-57.7137"/>
<polygon fill="black" stroke="black" points="487.892,-54.5328 477.382,-53.1911 484.761,-60.7938 487.892,-54.5328"/>
</g>
</g>
</svg>
